<svg width="167" height="64" viewBox="0 0 167 64" fill="none" xmlns="http://www.w3.org/2000/svg">
<mask id="path-1-outside-1_660_6" maskUnits="userSpaceOnUse" x="1" y="14" width="165" height="31" fill="black">
<rect fill="white" x="1" y="14" width="165" height="31"/>
<path d="M6.16 30.12L12.96 29.32C15.2 31.6933 17.2 33.8133 18.96 35.68C20.72 37.5467 22.1467 39.04 23.24 40.16C23.24 41.1733 22.9067 41.9733 22.24 42.56C21.5733 43.12 20.8 43.4 19.92 43.4C18.96 43.4 18.1733 43.16 17.56 42.68C16.9467 42.2 16.36 41.64 15.8 41L6.16 30.12ZM13.12 32.24L5.36 32.6L17.92 18.52C19.44 18.52 20.5467 18.8267 21.24 19.44C21.9333 20.0267 22.28 20.72 22.28 21.52C22.28 22.1333 22.12 22.72 21.8 23.28C21.5067 23.8133 21.0133 24.4 20.32 25.04L13.12 32.24ZM2.84 26.04H8.92V42.96C8.68 43.04 8.29333 43.12 7.76 43.2C7.22667 43.28 6.68 43.32 6.12 43.32C4.92 43.32 4.06667 43.1067 3.56 42.68C3.08 42.2267 2.84 41.48 2.84 40.44V26.04ZM8.92 33.72H2.84V18.68C3.10667 18.6267 3.50667 18.56 4.04 18.48C4.6 18.4 5.13333 18.36 5.64 18.36C6.81333 18.36 7.65333 18.56 8.16 18.96C8.66667 19.36 8.92 20.12 8.92 21.24V33.72ZM25.2263 18.28C25.2263 17.3733 25.5329 16.6133 26.1463 16C26.7863 15.3867 27.5863 15.08 28.5463 15.08C29.5329 15.08 30.3329 15.3867 30.9463 16C31.5596 16.6133 31.8663 17.3733 31.8663 18.28C31.8663 19.16 31.5596 19.92 30.9463 20.56C30.3329 21.2 29.5329 21.52 28.5463 21.52C27.5863 21.52 26.7863 21.2 26.1463 20.56C25.5329 19.92 25.2263 19.16 25.2263 18.28ZM25.5863 32.44H31.5063V42.96C31.2663 43.04 30.9063 43.1067 30.4263 43.16C29.9463 43.24 29.4263 43.28 28.8663 43.28C27.7196 43.28 26.8796 43.08 26.3463 42.68C25.8396 42.28 25.5863 41.56 25.5863 40.52V32.44ZM31.5063 35.52H25.5863V24.04C25.8263 23.96 26.1863 23.88 26.6663 23.8C27.1729 23.72 27.7063 23.68 28.2663 23.68C29.4129 23.68 30.2396 23.88 30.7463 24.28C31.2529 24.6533 31.5063 25.3867 31.5063 26.48V35.52ZM53.8847 30.56V34.32H47.9247V30.76C47.9247 29.7733 47.6314 29.0533 47.0447 28.6C46.4847 28.12 45.738 27.88 44.8047 27.88C44.138 27.88 43.5247 27.9733 42.9647 28.16C42.4047 28.32 41.898 28.52 41.4447 28.76V34.32H35.5247V28.08C35.5247 27.4133 35.658 26.8667 35.9247 26.44C36.218 25.9867 36.6314 25.5867 37.1647 25.24C38.018 24.6533 39.1114 24.1733 40.4447 23.8C41.778 23.4 43.2447 23.2 44.8447 23.2C47.7247 23.2 49.9514 23.84 51.5247 25.12C53.098 26.3733 53.8847 28.1867 53.8847 30.56ZM35.5247 32.48H41.4447V42.96C41.178 43.04 40.8047 43.1067 40.3247 43.16C39.8447 43.24 39.3247 43.28 38.7647 43.28C37.6447 43.28 36.818 43.08 36.2847 42.68C35.778 42.28 35.5247 41.56 35.5247 40.52V32.48ZM47.9247 32.48H53.8847V42.96C53.618 43.04 53.2447 43.1067 52.7647 43.16C52.2847 43.24 51.7647 43.28 51.2047 43.28C50.0847 43.28 49.258 43.08 48.7247 42.68C48.1914 42.28 47.9247 41.56 47.9247 40.52V32.48ZM70.1725 38.24V26.2H76.0925V39C76.0925 39.64 75.9592 40.1867 75.6925 40.64C75.4258 41.0667 74.9992 41.4533 74.4125 41.8C73.6925 42.28 72.7458 42.6933 71.5725 43.04C70.4258 43.4133 69.0925 43.6 67.5725 43.6C65.3592 43.6 63.4392 43.2267 61.8125 42.48C60.2125 41.7333 58.9725 40.6133 58.0925 39.12C57.2392 37.6 56.8125 35.72 56.8125 33.48C56.8125 31.1333 57.2525 29.2133 58.1325 27.72C59.0392 26.2 60.2525 25.0667 61.7725 24.32C63.2925 23.5733 64.9725 23.2 66.8125 23.2C67.7725 23.2 68.6258 23.3067 69.3725 23.52C70.1192 23.7333 70.7325 23.9867 71.2125 24.28V29.16C70.8392 28.84 70.3458 28.5467 69.7325 28.28C69.1192 28.0133 68.4125 27.88 67.6125 27.88C66.6792 27.88 65.8525 28.08 65.1325 28.48C64.4125 28.88 63.8525 29.4933 63.4525 30.32C63.0525 31.1467 62.8525 32.2 62.8525 33.48C62.8525 35.3467 63.2658 36.72 64.0925 37.6C64.9458 38.48 66.0925 38.92 67.5325 38.92C68.1192 38.92 68.6392 38.8533 69.0925 38.72C69.5458 38.56 69.9058 38.4 70.1725 38.24ZM76.0925 27.36L70.1725 27.4V16.96C70.4125 16.88 70.7725 16.8 71.2525 16.72C71.7325 16.64 72.2525 16.6 72.8125 16.6C73.9858 16.6 74.8258 16.8 75.3325 17.2C75.8392 17.6 76.0925 18.3333 76.0925 19.4V27.36Z"/>
<path d="M93.2584 28.44V32.76H84.3384V28.44H93.2584ZM90.2584 32.76L90.7384 29.44C92.9518 29.44 94.7918 29.7067 96.2584 30.24C97.7251 30.7733 98.8184 31.52 99.5384 32.48C100.285 33.44 100.658 34.6 100.658 35.96C100.658 38.5467 99.6984 40.4667 97.7784 41.72C95.8584 42.9733 93.1251 43.6 89.5784 43.6C88.9384 43.6 88.2051 43.5733 87.3784 43.52C86.5784 43.4667 85.7518 43.3733 84.8984 43.24C84.0718 43.1067 83.3118 42.92 82.6184 42.68C81.2318 42.1733 80.5384 41.28 80.5384 40V20.88C80.5384 20.3733 80.6851 19.9733 80.9784 19.68C81.2718 19.3867 81.6584 19.16 82.1384 19C83.0451 18.68 84.1384 18.4533 85.4184 18.32C86.7251 18.1867 88.0584 18.12 89.4184 18.12C92.7251 18.12 95.2718 18.6933 97.0584 19.84C98.8718 20.9867 99.7784 22.72 99.7784 25.04C99.7784 26.32 99.4051 27.4133 98.6584 28.32C97.9118 29.2267 96.8184 29.92 95.3784 30.4C93.9651 30.88 92.2451 31.12 90.2184 31.12L89.9384 28.44C91.2184 28.44 92.1651 28.1867 92.7784 27.68C93.3918 27.1733 93.6984 26.4533 93.6984 25.52C93.6984 24.64 93.3384 23.96 92.6184 23.48C91.9251 23 90.8718 22.76 89.4584 22.76C88.9518 22.76 88.4184 22.7867 87.8584 22.84C87.2984 22.8667 86.8318 22.92 86.4584 23V38.56C86.9118 38.6667 87.4584 38.7467 88.0984 38.8C88.7651 38.8533 89.3918 38.88 89.9784 38.88C91.3118 38.88 92.3784 38.6267 93.1784 38.12C94.0051 37.5867 94.4184 36.7867 94.4184 35.72C94.4184 34.7067 94.0718 33.96 93.3784 33.48C92.6851 33 91.6451 32.76 90.2584 32.76ZM103.589 18.28C103.589 17.3733 103.895 16.6133 104.509 16C105.149 15.3867 105.949 15.08 106.909 15.08C107.895 15.08 108.695 15.3867 109.309 16C109.922 16.6133 110.229 17.3733 110.229 18.28C110.229 19.16 109.922 19.92 109.309 20.56C108.695 21.2 107.895 21.52 106.909 21.52C105.949 21.52 105.149 21.2 104.509 20.56C103.895 19.92 103.589 19.16 103.589 18.28ZM103.949 32.44H109.869V42.96C109.629 43.04 109.269 43.1067 108.789 43.16C108.309 43.24 107.789 43.28 107.229 43.28C106.082 43.28 105.242 43.08 104.709 42.68C104.202 42.28 103.949 41.56 103.949 40.52V32.44ZM109.869 35.52H103.949V24.04C104.189 23.96 104.549 23.88 105.029 23.8C105.535 23.72 106.069 23.68 106.629 23.68C107.775 23.68 108.602 23.88 109.109 24.28C109.615 24.6533 109.869 25.3867 109.869 26.48V35.52ZM113.927 32.44H119.807V36.72C119.807 37.4667 120.047 38.0133 120.527 38.36C121.007 38.7067 121.687 38.88 122.567 38.88C122.967 38.88 123.394 38.84 123.847 38.76C124.327 38.6533 124.727 38.5333 125.047 38.4C125.261 38.64 125.447 38.9333 125.607 39.28C125.794 39.6267 125.887 40.0267 125.887 40.48C125.887 41.3867 125.514 42.1333 124.767 42.72C124.021 43.3067 122.767 43.6 121.007 43.6C118.767 43.6 117.021 43.0933 115.767 42.08C114.541 41.0667 113.927 39.4133 113.927 37.12V32.44ZM117.687 28.8V24.24H125.367C125.501 24.4533 125.634 24.76 125.767 25.16C125.901 25.56 125.967 26 125.967 26.48C125.967 27.28 125.781 27.8667 125.407 28.24C125.061 28.6133 124.581 28.8 123.967 28.8H117.687ZM119.807 33.44H113.927V19.08C114.194 19 114.567 18.92 115.047 18.84C115.527 18.7333 116.034 18.68 116.567 18.68C117.714 18.68 118.541 18.88 119.047 19.28C119.554 19.68 119.807 20.4133 119.807 21.48V33.44ZM131.238 36.2L130.998 32.2L140.918 30.64C140.864 29.8933 140.544 29.2 139.958 28.56C139.371 27.92 138.504 27.6 137.358 27.6C136.158 27.6 135.158 28.0133 134.358 28.84C133.558 29.64 133.131 30.7867 133.078 32.28L133.278 35.04C133.518 36.5067 134.144 37.56 135.158 38.2C136.171 38.8133 137.371 39.12 138.758 39.12C139.878 39.12 140.931 38.96 141.918 38.64C142.904 38.32 143.704 37.9867 144.318 37.64C144.718 37.88 145.038 38.2133 145.278 38.64C145.544 39.0667 145.678 39.52 145.678 40C145.678 40.8 145.358 41.4667 144.718 42C144.104 42.5333 143.238 42.9333 142.118 43.2C141.024 43.4667 139.771 43.6 138.358 43.6C136.304 43.6 134.451 43.2133 132.798 42.44C131.171 41.6667 129.891 40.5067 128.958 38.96C128.024 37.4133 127.558 35.48 127.558 33.16C127.558 31.4533 127.824 29.9733 128.358 28.72C128.918 27.4667 129.651 26.44 130.558 25.64C131.491 24.8133 132.531 24.2 133.678 23.8C134.851 23.4 136.064 23.2 137.318 23.2C139.158 23.2 140.758 23.5733 142.118 24.32C143.504 25.04 144.584 26.0267 145.358 27.28C146.131 28.5333 146.518 29.9867 146.518 31.64C146.518 32.4667 146.291 33.0933 145.838 33.52C145.384 33.9467 144.758 34.2133 143.958 34.32L131.238 36.2ZM164.957 37.4C164.957 39.3467 164.223 40.88 162.757 42C161.29 43.0933 159.157 43.64 156.357 43.64C154.17 43.64 152.37 43.32 150.957 42.68C149.543 42.04 148.837 41.0933 148.837 39.84C148.837 39.28 148.957 38.8 149.197 38.4C149.437 37.9733 149.743 37.64 150.117 37.4C150.863 37.8267 151.73 38.2267 152.717 38.6C153.73 38.9467 154.877 39.12 156.157 39.12C158.103 39.12 159.077 38.56 159.077 37.44C159.077 36.96 158.903 36.5867 158.557 36.32C158.21 36.0267 157.637 35.8133 156.837 35.68L155.157 35.28C153.023 34.8267 151.423 34.1333 150.357 33.2C149.317 32.24 148.797 30.9333 148.797 29.28C148.797 27.4133 149.543 25.9333 151.037 24.84C152.557 23.72 154.597 23.16 157.157 23.16C158.437 23.16 159.597 23.2933 160.637 23.56C161.703 23.8 162.543 24.1867 163.157 24.72C163.77 25.2267 164.077 25.8667 164.077 26.64C164.077 27.1733 163.97 27.64 163.757 28.04C163.543 28.44 163.263 28.7733 162.917 29.04C162.623 28.8533 162.17 28.6533 161.557 28.44C160.97 28.2267 160.317 28.0533 159.597 27.92C158.903 27.7867 158.25 27.72 157.637 27.72C156.677 27.72 155.93 27.8533 155.397 28.12C154.863 28.36 154.597 28.7467 154.597 29.28C154.597 29.6267 154.743 29.9333 155.037 30.2C155.357 30.44 155.903 30.64 156.677 30.8L158.277 31.2C160.65 31.7333 162.357 32.5067 163.397 33.52C164.437 34.5067 164.957 35.8 164.957 37.4Z"/>
</mask>
<path d="M6.16 30.12L12.96 29.32C15.2 31.6933 17.2 33.8133 18.96 35.68C20.72 37.5467 22.1467 39.04 23.24 40.16C23.24 41.1733 22.9067 41.9733 22.24 42.56C21.5733 43.12 20.8 43.4 19.92 43.4C18.96 43.4 18.1733 43.16 17.56 42.68C16.9467 42.2 16.36 41.64 15.8 41L6.16 30.12ZM13.12 32.24L5.36 32.6L17.92 18.52C19.44 18.52 20.5467 18.8267 21.24 19.44C21.9333 20.0267 22.28 20.72 22.28 21.52C22.28 22.1333 22.12 22.72 21.8 23.28C21.5067 23.8133 21.0133 24.4 20.32 25.04L13.12 32.24ZM2.84 26.04H8.92V42.96C8.68 43.04 8.29333 43.12 7.76 43.2C7.22667 43.28 6.68 43.32 6.12 43.32C4.92 43.32 4.06667 43.1067 3.56 42.68C3.08 42.2267 2.84 41.48 2.84 40.44V26.04ZM8.92 33.72H2.84V18.68C3.10667 18.6267 3.50667 18.56 4.04 18.48C4.6 18.4 5.13333 18.36 5.64 18.36C6.81333 18.36 7.65333 18.56 8.16 18.96C8.66667 19.36 8.92 20.12 8.92 21.24V33.72ZM25.2263 18.28C25.2263 17.3733 25.5329 16.6133 26.1463 16C26.7863 15.3867 27.5863 15.08 28.5463 15.08C29.5329 15.08 30.3329 15.3867 30.9463 16C31.5596 16.6133 31.8663 17.3733 31.8663 18.28C31.8663 19.16 31.5596 19.92 30.9463 20.56C30.3329 21.2 29.5329 21.52 28.5463 21.52C27.5863 21.52 26.7863 21.2 26.1463 20.56C25.5329 19.92 25.2263 19.16 25.2263 18.28ZM25.5863 32.44H31.5063V42.96C31.2663 43.04 30.9063 43.1067 30.4263 43.16C29.9463 43.24 29.4263 43.28 28.8663 43.28C27.7196 43.28 26.8796 43.08 26.3463 42.68C25.8396 42.28 25.5863 41.56 25.5863 40.52V32.44ZM31.5063 35.52H25.5863V24.04C25.8263 23.96 26.1863 23.88 26.6663 23.8C27.1729 23.72 27.7063 23.68 28.2663 23.68C29.4129 23.68 30.2396 23.88 30.7463 24.28C31.2529 24.6533 31.5063 25.3867 31.5063 26.48V35.52ZM53.8847 30.56V34.32H47.9247V30.76C47.9247 29.7733 47.6314 29.0533 47.0447 28.6C46.4847 28.12 45.738 27.88 44.8047 27.88C44.138 27.88 43.5247 27.9733 42.9647 28.16C42.4047 28.32 41.898 28.52 41.4447 28.76V34.32H35.5247V28.08C35.5247 27.4133 35.658 26.8667 35.9247 26.44C36.218 25.9867 36.6314 25.5867 37.1647 25.24C38.018 24.6533 39.1114 24.1733 40.4447 23.8C41.778 23.4 43.2447 23.2 44.8447 23.2C47.7247 23.2 49.9514 23.84 51.5247 25.12C53.098 26.3733 53.8847 28.1867 53.8847 30.56ZM35.5247 32.48H41.4447V42.96C41.178 43.04 40.8047 43.1067 40.3247 43.16C39.8447 43.24 39.3247 43.28 38.7647 43.28C37.6447 43.28 36.818 43.08 36.2847 42.68C35.778 42.28 35.5247 41.56 35.5247 40.52V32.48ZM47.9247 32.48H53.8847V42.96C53.618 43.04 53.2447 43.1067 52.7647 43.16C52.2847 43.24 51.7647 43.28 51.2047 43.28C50.0847 43.28 49.258 43.08 48.7247 42.68C48.1914 42.28 47.9247 41.56 47.9247 40.52V32.48ZM70.1725 38.24V26.2H76.0925V39C76.0925 39.64 75.9592 40.1867 75.6925 40.64C75.4258 41.0667 74.9992 41.4533 74.4125 41.8C73.6925 42.28 72.7458 42.6933 71.5725 43.04C70.4258 43.4133 69.0925 43.6 67.5725 43.6C65.3592 43.6 63.4392 43.2267 61.8125 42.48C60.2125 41.7333 58.9725 40.6133 58.0925 39.12C57.2392 37.6 56.8125 35.72 56.8125 33.48C56.8125 31.1333 57.2525 29.2133 58.1325 27.72C59.0392 26.2 60.2525 25.0667 61.7725 24.32C63.2925 23.5733 64.9725 23.2 66.8125 23.2C67.7725 23.2 68.6258 23.3067 69.3725 23.52C70.1192 23.7333 70.7325 23.9867 71.2125 24.28V29.16C70.8392 28.84 70.3458 28.5467 69.7325 28.28C69.1192 28.0133 68.4125 27.88 67.6125 27.88C66.6792 27.88 65.8525 28.08 65.1325 28.48C64.4125 28.88 63.8525 29.4933 63.4525 30.32C63.0525 31.1467 62.8525 32.2 62.8525 33.48C62.8525 35.3467 63.2658 36.72 64.0925 37.6C64.9458 38.48 66.0925 38.92 67.5325 38.92C68.1192 38.92 68.6392 38.8533 69.0925 38.72C69.5458 38.56 69.9058 38.4 70.1725 38.24ZM76.0925 27.36L70.1725 27.4V16.96C70.4125 16.88 70.7725 16.8 71.2525 16.72C71.7325 16.64 72.2525 16.6 72.8125 16.6C73.9858 16.6 74.8258 16.8 75.3325 17.2C75.8392 17.6 76.0925 18.3333 76.0925 19.4V27.36Z" fill="#37823A"/>
<path d="M93.2584 28.44V32.76H84.3384V28.44H93.2584ZM90.2584 32.76L90.7384 29.44C92.9518 29.44 94.7918 29.7067 96.2584 30.24C97.7251 30.7733 98.8184 31.52 99.5384 32.48C100.285 33.44 100.658 34.6 100.658 35.96C100.658 38.5467 99.6984 40.4667 97.7784 41.72C95.8584 42.9733 93.1251 43.6 89.5784 43.6C88.9384 43.6 88.2051 43.5733 87.3784 43.52C86.5784 43.4667 85.7518 43.3733 84.8984 43.24C84.0718 43.1067 83.3118 42.92 82.6184 42.68C81.2318 42.1733 80.5384 41.28 80.5384 40V20.88C80.5384 20.3733 80.6851 19.9733 80.9784 19.68C81.2718 19.3867 81.6584 19.16 82.1384 19C83.0451 18.68 84.1384 18.4533 85.4184 18.32C86.7251 18.1867 88.0584 18.12 89.4184 18.12C92.7251 18.12 95.2718 18.6933 97.0584 19.84C98.8718 20.9867 99.7784 22.72 99.7784 25.04C99.7784 26.32 99.4051 27.4133 98.6584 28.32C97.9118 29.2267 96.8184 29.92 95.3784 30.4C93.9651 30.88 92.2451 31.12 90.2184 31.12L89.9384 28.44C91.2184 28.44 92.1651 28.1867 92.7784 27.68C93.3918 27.1733 93.6984 26.4533 93.6984 25.52C93.6984 24.64 93.3384 23.96 92.6184 23.48C91.9251 23 90.8718 22.76 89.4584 22.76C88.9518 22.76 88.4184 22.7867 87.8584 22.84C87.2984 22.8667 86.8318 22.92 86.4584 23V38.56C86.9118 38.6667 87.4584 38.7467 88.0984 38.8C88.7651 38.8533 89.3918 38.88 89.9784 38.88C91.3118 38.88 92.3784 38.6267 93.1784 38.12C94.0051 37.5867 94.4184 36.7867 94.4184 35.72C94.4184 34.7067 94.0718 33.96 93.3784 33.48C92.6851 33 91.6451 32.76 90.2584 32.76ZM103.589 18.28C103.589 17.3733 103.895 16.6133 104.509 16C105.149 15.3867 105.949 15.08 106.909 15.08C107.895 15.08 108.695 15.3867 109.309 16C109.922 16.6133 110.229 17.3733 110.229 18.28C110.229 19.16 109.922 19.92 109.309 20.56C108.695 21.2 107.895 21.52 106.909 21.52C105.949 21.52 105.149 21.2 104.509 20.56C103.895 19.92 103.589 19.16 103.589 18.28ZM103.949 32.44H109.869V42.96C109.629 43.04 109.269 43.1067 108.789 43.16C108.309 43.24 107.789 43.28 107.229 43.28C106.082 43.28 105.242 43.08 104.709 42.68C104.202 42.28 103.949 41.56 103.949 40.52V32.44ZM109.869 35.52H103.949V24.04C104.189 23.96 104.549 23.88 105.029 23.8C105.535 23.72 106.069 23.68 106.629 23.68C107.775 23.68 108.602 23.88 109.109 24.28C109.615 24.6533 109.869 25.3867 109.869 26.48V35.52ZM113.927 32.44H119.807V36.72C119.807 37.4667 120.047 38.0133 120.527 38.36C121.007 38.7067 121.687 38.88 122.567 38.88C122.967 38.88 123.394 38.84 123.847 38.76C124.327 38.6533 124.727 38.5333 125.047 38.4C125.261 38.64 125.447 38.9333 125.607 39.28C125.794 39.6267 125.887 40.0267 125.887 40.48C125.887 41.3867 125.514 42.1333 124.767 42.72C124.021 43.3067 122.767 43.6 121.007 43.6C118.767 43.6 117.021 43.0933 115.767 42.08C114.541 41.0667 113.927 39.4133 113.927 37.12V32.44ZM117.687 28.8V24.24H125.367C125.501 24.4533 125.634 24.76 125.767 25.16C125.901 25.56 125.967 26 125.967 26.48C125.967 27.28 125.781 27.8667 125.407 28.24C125.061 28.6133 124.581 28.8 123.967 28.8H117.687ZM119.807 33.44H113.927V19.08C114.194 19 114.567 18.92 115.047 18.84C115.527 18.7333 116.034 18.68 116.567 18.68C117.714 18.68 118.541 18.88 119.047 19.28C119.554 19.68 119.807 20.4133 119.807 21.48V33.44ZM131.238 36.2L130.998 32.2L140.918 30.64C140.864 29.8933 140.544 29.2 139.958 28.56C139.371 27.92 138.504 27.6 137.358 27.6C136.158 27.6 135.158 28.0133 134.358 28.84C133.558 29.64 133.131 30.7867 133.078 32.28L133.278 35.04C133.518 36.5067 134.144 37.56 135.158 38.2C136.171 38.8133 137.371 39.12 138.758 39.12C139.878 39.12 140.931 38.96 141.918 38.64C142.904 38.32 143.704 37.9867 144.318 37.64C144.718 37.88 145.038 38.2133 145.278 38.64C145.544 39.0667 145.678 39.52 145.678 40C145.678 40.8 145.358 41.4667 144.718 42C144.104 42.5333 143.238 42.9333 142.118 43.2C141.024 43.4667 139.771 43.6 138.358 43.6C136.304 43.6 134.451 43.2133 132.798 42.44C131.171 41.6667 129.891 40.5067 128.958 38.96C128.024 37.4133 127.558 35.48 127.558 33.16C127.558 31.4533 127.824 29.9733 128.358 28.72C128.918 27.4667 129.651 26.44 130.558 25.64C131.491 24.8133 132.531 24.2 133.678 23.8C134.851 23.4 136.064 23.2 137.318 23.2C139.158 23.2 140.758 23.5733 142.118 24.32C143.504 25.04 144.584 26.0267 145.358 27.28C146.131 28.5333 146.518 29.9867 146.518 31.64C146.518 32.4667 146.291 33.0933 145.838 33.52C145.384 33.9467 144.758 34.2133 143.958 34.32L131.238 36.2ZM164.957 37.4C164.957 39.3467 164.223 40.88 162.757 42C161.29 43.0933 159.157 43.64 156.357 43.64C154.17 43.64 152.37 43.32 150.957 42.68C149.543 42.04 148.837 41.0933 148.837 39.84C148.837 39.28 148.957 38.8 149.197 38.4C149.437 37.9733 149.743 37.64 150.117 37.4C150.863 37.8267 151.73 38.2267 152.717 38.6C153.73 38.9467 154.877 39.12 156.157 39.12C158.103 39.12 159.077 38.56 159.077 37.44C159.077 36.96 158.903 36.5867 158.557 36.32C158.21 36.0267 157.637 35.8133 156.837 35.68L155.157 35.28C153.023 34.8267 151.423 34.1333 150.357 33.2C149.317 32.24 148.797 30.9333 148.797 29.28C148.797 27.4133 149.543 25.9333 151.037 24.84C152.557 23.72 154.597 23.16 157.157 23.16C158.437 23.16 159.597 23.2933 160.637 23.56C161.703 23.8 162.543 24.1867 163.157 24.72C163.77 25.2267 164.077 25.8667 164.077 26.64C164.077 27.1733 163.97 27.64 163.757 28.04C163.543 28.44 163.263 28.7733 162.917 29.04C162.623 28.8533 162.17 28.6533 161.557 28.44C160.97 28.2267 160.317 28.0533 159.597 27.92C158.903 27.7867 158.25 27.72 157.637 27.72C156.677 27.72 155.93 27.8533 155.397 28.12C154.863 28.36 154.597 28.7467 154.597 29.28C154.597 29.6267 154.743 29.9333 155.037 30.2C155.357 30.44 155.903 30.64 156.677 30.8L158.277 31.2C160.65 31.7333 162.357 32.5067 163.397 33.52C164.437 34.5067 164.957 35.8 164.957 37.4Z" fill="#4CAF50"/>
<path d="M6.16 30.12L6.04316 29.1268L4.14214 29.3505L5.41153 30.7832L6.16 30.12ZM12.96 29.32L13.6872 28.6336L13.3423 28.2681L12.8432 28.3268L12.96 29.32ZM18.96 35.68L19.6876 34.994L18.96 35.68ZM23.24 40.16H24.24V39.7528L23.9556 39.4615L23.24 40.16ZM22.24 42.56L22.8832 43.3257L22.892 43.3183L22.9006 43.3107L22.24 42.56ZM17.56 42.68L18.1763 41.8925L17.56 42.68ZM15.8 41L16.5526 40.3415L16.5485 40.3368L15.8 41ZM13.12 32.24L13.1663 33.2389L13.5532 33.221L13.8271 32.9471L13.12 32.24ZM5.36 32.6L4.61376 31.9343L3.03054 33.7091L5.40634 33.5989L5.36 32.6ZM17.92 18.52V17.52H17.472L17.1738 17.8543L17.92 18.52ZM21.24 19.44L20.5774 20.189L20.5857 20.1963L20.5941 20.2034L21.24 19.44ZM21.8 23.28L20.9318 22.7839L20.9277 22.7909L20.9238 22.7981L21.8 23.28ZM20.32 25.04L19.6417 24.3052L19.627 24.3188L19.6129 24.3329L20.32 25.04ZM2.84 26.04V25.04H1.84V26.04H2.84ZM8.92 26.04H9.92V25.04H8.92V26.04ZM8.92 42.96L9.23623 43.9087L9.92 43.6808V42.96H8.92ZM7.76 43.2L7.61166 42.2111H7.61166L7.76 43.2ZM3.56 42.68L2.87338 43.407L2.89408 43.4266L2.91586 43.4449L3.56 42.68ZM8.92 33.72V34.72H9.92V33.72H8.92ZM2.84 33.72H1.84V34.72H2.84V33.72ZM2.84 18.68L2.64389 17.6994L1.84 17.8602V18.68H2.84ZM4.04 18.48L3.89857 17.49L3.89166 17.4911L4.04 18.48ZM8.16 18.96L7.54036 19.7449L7.54036 19.7449L8.16 18.96ZM6.27684 31.1131L13.0768 30.3132L12.8432 28.3268L6.04316 29.1268L6.27684 31.1131ZM12.2328 30.0064C14.4727 32.3796 16.4726 34.4995 18.2324 36.366L19.6876 34.994C17.9274 33.1272 15.9273 31.007 13.6872 28.6336L12.2328 30.0064ZM18.2324 36.366C19.9942 38.2346 21.4253 39.7326 22.5244 40.8585L23.9556 39.4615C22.868 38.3474 21.4458 36.8587 19.6876 34.994L18.2324 36.366ZM22.24 40.16C22.24 40.931 21.9987 41.4403 21.5794 41.8093L22.9006 43.3107C23.8147 42.5064 24.24 41.4157 24.24 40.16H22.24ZM21.5968 41.7943C21.1124 42.2012 20.5675 42.4 19.92 42.4V44.4C21.0325 44.4 22.0343 44.0388 22.8832 43.3257L21.5968 41.7943ZM19.92 42.4C19.1301 42.4 18.5759 42.2052 18.1763 41.8925L16.9437 43.4675C17.7708 44.1148 18.7899 44.4 19.92 44.4V42.4ZM18.1763 41.8925C17.6166 41.4545 17.075 40.9386 16.5526 40.3415L15.0474 41.6585C15.645 42.3414 16.2767 42.9455 16.9437 43.4675L18.1763 41.8925ZM16.5485 40.3368L6.90847 29.4568L5.41153 30.7832L15.0515 41.6632L16.5485 40.3368ZM13.0737 31.2411L5.31366 31.6011L5.40634 33.5989L13.1663 33.2389L13.0737 31.2411ZM6.10624 33.2657L18.6662 19.1857L17.1738 17.8543L4.61376 31.9343L6.10624 33.2657ZM17.92 19.52C19.3425 19.52 20.1529 19.8135 20.5774 20.189L21.9026 18.691C20.9404 17.8398 19.5375 17.52 17.92 17.52V19.52ZM20.5941 20.2034C21.0968 20.6288 21.28 21.056 21.28 21.52H23.28C23.28 20.384 22.7698 19.4245 21.8859 18.6766L20.5941 20.2034ZM21.28 21.52C21.28 21.9502 21.17 22.3669 20.9318 22.7839L22.6682 23.7761C23.07 23.0731 23.28 22.3165 23.28 21.52H21.28ZM20.9238 22.7981C20.7027 23.2 20.2945 23.7027 19.6417 24.3052L20.9983 25.7748C21.7322 25.0973 22.3106 24.4267 22.6762 23.7619L20.9238 22.7981ZM19.6129 24.3329L12.4129 31.5329L13.8271 32.9471L21.0271 25.7471L19.6129 24.3329ZM2.84 27.04H8.92V25.04H2.84V27.04ZM7.92 26.04V42.96H9.92V26.04H7.92ZM8.60377 42.0113C8.45103 42.0622 8.13688 42.1323 7.61166 42.2111L7.90834 44.1889C8.44979 44.1077 8.90897 44.0178 9.23623 43.9087L8.60377 42.0113ZM7.61166 42.2111C7.12927 42.2834 6.63224 42.32 6.12 42.32V44.32C6.72776 44.32 7.32406 44.2766 7.90834 44.1889L7.61166 42.2111ZM6.12 42.32C4.98559 42.32 4.43313 42.1079 4.20414 41.9151L2.91586 43.4449C3.70021 44.1054 4.85441 44.32 6.12 44.32V42.32ZM4.24662 41.953C4.05654 41.7735 3.84 41.3595 3.84 40.44H1.84C1.84 41.6005 2.10347 42.6799 2.87338 43.407L4.24662 41.953ZM3.84 40.44V26.04H1.84V40.44H3.84ZM8.92 32.72H2.84V34.72H8.92V32.72ZM3.84 33.72V18.68H1.84V33.72H3.84ZM3.03611 19.6606C3.27819 19.6122 3.65872 19.5484 4.18834 19.4689L3.89166 17.4911C3.35462 17.5716 2.93514 17.6412 2.64389 17.6994L3.03611 19.6606ZM4.18142 19.4699C4.6999 19.3959 5.18574 19.36 5.64 19.36V17.36C5.08093 17.36 4.5001 17.4041 3.89858 17.49L4.18142 19.4699ZM5.64 19.36C6.75042 19.36 7.30514 19.5592 7.54036 19.7449L8.77965 18.1751C8.00152 17.5608 6.87625 17.36 5.64 17.36V19.36ZM7.54036 19.7449C7.67673 19.8525 7.92 20.2091 7.92 21.24H9.92C9.92 20.0309 9.65661 18.8675 8.77964 18.1751L7.54036 19.7449ZM7.92 21.24V33.72H9.92V21.24H7.92ZM26.1463 16L25.4543 15.278L25.4467 15.2854L25.4391 15.2929L26.1463 16ZM30.9463 20.56L30.2243 19.8681V19.8681L30.9463 20.56ZM26.1463 20.56L25.4243 21.2519L25.4316 21.2596L25.4391 21.2671L26.1463 20.56ZM25.5863 32.44V31.44H24.5863V32.44H25.5863ZM31.5063 32.44H32.5063V31.44H31.5063V32.44ZM31.5063 42.96L31.8225 43.9087L32.5063 43.6808V42.96H31.5063ZM30.4263 43.16L30.3158 42.1661L30.2887 42.1691L30.2619 42.1736L30.4263 43.16ZM26.3463 42.68L25.7266 43.4649L25.7363 43.4726L25.7463 43.48L26.3463 42.68ZM31.5063 35.52V36.52H32.5063V35.52H31.5063ZM25.5863 35.52H24.5863V36.52H25.5863V35.52ZM25.5863 24.04L25.27 23.0913L24.5863 23.3192V24.04H25.5863ZM26.6663 23.8L26.5103 22.8122L26.5019 22.8136L26.6663 23.8ZM30.7463 24.28L30.1266 25.0649L30.1397 25.0752L30.1531 25.0851L30.7463 24.28ZM26.2263 18.28C26.2263 17.6252 26.4368 17.1236 26.8534 16.7071L25.4391 15.2929C24.629 16.103 24.2263 17.1215 24.2263 18.28H26.2263ZM26.8382 16.722C27.2757 16.3027 27.8206 16.08 28.5463 16.08V14.08C27.3519 14.08 26.2968 14.4707 25.4543 15.278L26.8382 16.722ZM28.5463 16.08C29.3074 16.08 29.8397 16.3076 30.2391 16.7071L31.6534 15.2929C30.8262 14.4657 29.7585 14.08 28.5463 14.08V16.08ZM30.2391 16.7071C30.6557 17.1236 30.8663 17.6252 30.8663 18.28H32.8663C32.8663 17.1215 32.4635 16.103 31.6534 15.2929L30.2391 16.7071ZM30.8663 18.28C30.8663 18.9 30.6606 19.4127 30.2243 19.8681L31.6682 21.2519C32.4585 20.4273 32.8663 19.42 32.8663 18.28H30.8663ZM30.2243 19.8681C29.8218 20.288 29.2943 20.52 28.5463 20.52V22.52C29.7715 22.52 30.844 22.112 31.6682 21.2519L30.2243 19.8681ZM28.5463 20.52C27.8336 20.52 27.2936 20.2931 26.8534 19.8529L25.4391 21.2671C26.2789 22.1069 27.3389 22.52 28.5463 22.52V20.52ZM26.8682 19.8681C26.4319 19.4127 26.2263 18.9 26.2263 18.28H24.2263C24.2263 19.42 24.634 20.4273 25.4243 21.2519L26.8682 19.8681ZM25.5863 33.44H31.5063V31.44H25.5863V33.44ZM30.5063 32.44V42.96H32.5063V32.44H30.5063ZM31.19 42.0113C31.0524 42.0572 30.7768 42.1149 30.3158 42.1661L30.5367 44.1539C31.0357 44.0984 31.4802 44.0228 31.8225 43.9087L31.19 42.0113ZM30.2619 42.1736C29.8436 42.2433 29.3792 42.28 28.8663 42.28V44.28C29.4733 44.28 30.0489 44.2367 30.5907 44.1464L30.2619 42.1736ZM28.8663 42.28C27.7961 42.28 27.2207 42.0858 26.9463 41.88L25.7463 43.48C26.5385 44.0742 27.6431 44.28 28.8663 44.28V42.28ZM26.9659 41.8951C26.8152 41.7761 26.5863 41.4404 26.5863 40.52H24.5863C24.5863 41.6796 24.864 42.7839 25.7266 43.4649L26.9659 41.8951ZM26.5863 40.52V32.44H24.5863V40.52H26.5863ZM31.5063 34.52H25.5863V36.52H31.5063V34.52ZM26.5863 35.52V24.04H24.5863V35.52H26.5863ZM25.9025 24.9887C26.0665 24.934 26.3643 24.8641 26.8306 24.7864L26.5019 22.8136C26.0082 22.8959 25.586 22.986 25.27 23.0913L25.9025 24.9887ZM26.8222 24.7878C27.2728 24.7166 27.7538 24.68 28.2663 24.68V22.68C27.6587 22.68 27.073 22.7234 26.5103 22.8122L26.8222 24.7878ZM28.2663 24.68C29.3434 24.68 29.8885 24.8769 30.1266 25.0649L31.3659 23.4951C30.5906 22.8831 29.4824 22.68 28.2663 22.68V24.68ZM30.1531 25.0851C30.2635 25.1664 30.5063 25.4759 30.5063 26.48H32.5063C32.5063 25.2974 32.2424 24.1402 31.3395 23.4749L30.1531 25.0851ZM30.5063 26.48V35.52H32.5063V26.48H30.5063ZM53.8847 34.32V35.32H54.8847V34.32H53.8847ZM47.9247 34.32H46.9247V35.32H47.9247V34.32ZM47.0447 28.6L46.3939 29.3593L46.4132 29.3758L46.4332 29.3913L47.0447 28.6ZM42.9647 28.16L43.2394 29.1215L43.2603 29.1156L43.2809 29.1087L42.9647 28.16ZM41.4447 28.76L40.9768 27.8762L40.4447 28.1579V28.76H41.4447ZM41.4447 34.32V35.32H42.4447V34.32H41.4447ZM35.5247 34.32H34.5247V35.32H35.5247V34.32ZM35.9247 26.44L35.0851 25.8967L35.0809 25.9033L35.0767 25.91L35.9247 26.44ZM37.1647 25.24L37.7097 26.0784L37.7205 26.0714L37.7312 26.064L37.1647 25.24ZM40.4447 23.8L40.7143 24.763L40.7232 24.7605L40.732 24.7578L40.4447 23.8ZM51.5247 25.12L50.8936 25.8958L50.9016 25.9022L51.5247 25.12ZM35.5247 32.48V31.48H34.5247V32.48H35.5247ZM41.4447 32.48H42.4447V31.48H41.4447V32.48ZM41.4447 42.96L41.732 43.9178L42.4447 43.704V42.96H41.4447ZM40.3247 43.16L40.2143 42.1661L40.1872 42.1691L40.1603 42.1736L40.3247 43.16ZM36.2847 42.68L35.665 43.4649L35.6748 43.4726L35.6847 43.48L36.2847 42.68ZM47.9247 32.48V31.48H46.9247V32.48H47.9247ZM53.8847 32.48H54.8847V31.48H53.8847V32.48ZM53.8847 42.96L54.172 43.9178L54.8847 43.704V42.96H53.8847ZM52.7647 43.16L52.6543 42.1661L52.6272 42.1691L52.6003 42.1736L52.7647 43.16ZM48.7247 42.68L48.1247 43.48H48.1247L48.7247 42.68ZM52.8847 30.56V34.32H54.8847V30.56H52.8847ZM53.8847 33.32H47.9247V35.32H53.8847V33.32ZM48.9247 34.32V30.76H46.9247V34.32H48.9247ZM48.9247 30.76C48.9247 29.5742 48.5638 28.5101 47.6561 27.8087L46.4332 29.3913C46.6989 29.5966 46.9247 29.9724 46.9247 30.76H48.9247ZM47.6955 27.8407C46.9102 27.1677 45.9116 26.88 44.8047 26.88V28.88C45.5645 28.88 46.0591 29.0723 46.3939 29.3593L47.6955 27.8407ZM44.8047 26.88C44.0443 26.88 43.3227 26.9866 42.6485 27.2113L43.2809 29.1087C43.7267 28.9601 44.2318 28.88 44.8047 28.88V26.88ZM42.69 27.1985C42.0719 27.3751 41.4993 27.5996 40.9768 27.8762L41.9126 29.6438C42.2968 29.4404 42.7375 29.2649 43.2394 29.1215L42.69 27.1985ZM40.4447 28.76V34.32H42.4447V28.76H40.4447ZM41.4447 33.32H35.5247V35.32H41.4447V33.32ZM36.5247 34.32V28.08H34.5247V34.32H36.5247ZM36.5247 28.08C36.5247 27.5413 36.6327 27.1939 36.7727 26.97L35.0767 25.91C34.6833 26.5394 34.5247 27.2854 34.5247 28.08H36.5247ZM36.7643 26.9832C36.9689 26.6671 37.2735 26.362 37.7097 26.0784L36.6197 24.4016C35.9893 24.8113 35.4672 25.3063 35.0851 25.8967L36.7643 26.9832ZM37.7312 26.064C38.4691 25.5567 39.4535 25.116 40.7143 24.763L40.1751 22.837C38.7692 23.2307 37.5669 23.7499 36.5982 24.416L37.7312 26.064ZM40.732 24.7578C41.9594 24.3896 43.3278 24.2 44.8447 24.2V22.2C43.1616 22.2 41.5966 22.4104 40.1573 22.8422L40.732 24.7578ZM44.8447 24.2C47.5895 24.2 49.5603 24.811 50.8936 25.8957L52.1558 24.3443C50.3424 22.869 47.8599 22.2 44.8447 22.2V24.2ZM50.9016 25.9022C52.1927 26.9306 52.8847 28.4299 52.8847 30.56H54.8847C54.8847 27.9434 54.0034 25.816 52.1478 24.3378L50.9016 25.9022ZM35.5247 33.48H41.4447V31.48H35.5247V33.48ZM40.4447 32.48V42.96H42.4447V32.48H40.4447ZM41.1573 42.0022C40.9755 42.0567 40.6711 42.1154 40.2143 42.1661L40.4351 44.1539C40.9383 44.098 41.3806 44.0233 41.732 43.9178L41.1573 42.0022ZM40.1603 42.1736C39.742 42.2433 39.2776 42.28 38.7647 42.28V44.28C39.3717 44.28 39.9474 44.2367 40.4891 44.1464L40.1603 42.1736ZM38.7647 42.28C37.7276 42.28 37.1622 42.0881 36.8847 41.88L35.6847 43.48C36.4739 44.0719 37.5618 44.28 38.7647 44.28V42.28ZM36.9043 41.8951C36.7536 41.7761 36.5247 41.4404 36.5247 40.52H34.5247C34.5247 41.6796 34.8024 42.7839 35.665 43.4649L36.9043 41.8951ZM36.5247 40.52V32.48H34.5247V40.52H36.5247ZM47.9247 33.48H53.8847V31.48H47.9247V33.48ZM52.8847 32.48V42.96H54.8847V32.48H52.8847ZM53.5973 42.0022C53.4155 42.0567 53.1111 42.1154 52.6543 42.1661L52.8751 44.1539C53.3783 44.098 53.8206 44.0233 54.172 43.9178L53.5973 42.0022ZM52.6003 42.1736C52.182 42.2433 51.7176 42.28 51.2047 42.28V44.28C51.8117 44.28 52.3874 44.2367 52.9291 44.1464L52.6003 42.1736ZM51.2047 42.28C50.1676 42.28 49.6022 42.0881 49.3247 41.88L48.1247 43.48C48.9139 44.0719 50.0018 44.28 51.2047 44.28V42.28ZM49.3247 41.88C49.1587 41.7555 48.9247 41.425 48.9247 40.52H46.9247C46.9247 41.695 47.224 42.8045 48.1247 43.48L49.3247 41.88ZM48.9247 40.52V32.48H46.9247V40.52H48.9247ZM70.1725 38.24L70.687 39.0975L71.1725 38.8062V38.24H70.1725ZM70.1725 26.2V25.2H69.1725V26.2H70.1725ZM76.0925 26.2H77.0925V25.2H76.0925V26.2ZM75.6925 40.64L76.5405 41.17L76.5476 41.1586L76.5544 41.147L75.6925 40.64ZM74.4125 41.8L73.9038 40.9391L73.8804 40.9529L73.8578 40.9679L74.4125 41.8ZM71.5725 43.04L71.2892 42.081L71.276 42.0849L71.2629 42.0891L71.5725 43.04ZM61.8125 42.48L61.3896 43.3862L61.3953 43.3888L61.8125 42.48ZM58.0925 39.12L57.2205 39.6095L57.2256 39.6187L57.231 39.6277L58.0925 39.12ZM58.1325 27.72L57.2737 27.2077L57.271 27.2123L58.1325 27.72ZM61.7725 24.32L62.2134 25.2176L61.7725 24.32ZM69.3725 23.52L69.0978 24.4815L69.3725 23.52ZM71.2125 24.28H72.2125V23.7192L71.7339 23.4267L71.2125 24.28ZM71.2125 29.16L70.5617 29.9193L72.2125 31.3342V29.16H71.2125ZM69.7325 28.28L70.1312 27.3629L69.7325 28.28ZM65.1325 28.48L65.6181 29.3542L65.1325 28.48ZM63.4525 30.32L64.3527 30.7556V30.7556L63.4525 30.32ZM64.0925 37.6L63.3637 38.2847L63.3691 38.2905L63.3746 38.2961L64.0925 37.6ZM69.0925 38.72L69.3747 39.6794L69.4002 39.6719L69.4253 39.663L69.0925 38.72ZM76.0925 27.36L76.0993 28.36L77.0925 28.3533V27.36H76.0925ZM70.1725 27.4H69.1725V28.4068L70.1793 28.4L70.1725 27.4ZM70.1725 16.96L69.8563 16.0113L69.1725 16.2392V16.96H70.1725ZM71.2525 16.72L71.4169 17.7064H71.4169L71.2525 16.72ZM75.3325 17.2L74.7129 17.9849L75.3325 17.2ZM71.1725 38.24V26.2H69.1725V38.24H71.1725ZM70.1725 27.2H76.0925V25.2H70.1725V27.2ZM75.0925 26.2V39H77.0925V26.2H75.0925ZM75.0925 39C75.0925 39.5003 74.9891 39.8635 74.8306 40.133L76.5544 41.147C76.9292 40.5098 77.0925 39.7797 77.0925 39H75.0925ZM74.8445 40.11C74.6875 40.3613 74.3991 40.6464 73.9038 40.9391L74.9212 42.6609C75.5993 42.2603 76.1642 41.7721 76.5405 41.17L74.8445 40.11ZM73.8578 40.9679C73.248 41.3745 72.4026 41.752 71.2892 42.081L71.8558 43.999C73.089 43.6347 74.137 43.1855 74.9672 42.632L73.8578 40.9679ZM71.2629 42.0891C70.2383 42.4227 69.0135 42.6 67.5725 42.6V44.6C69.1715 44.6 70.6133 44.404 71.8821 43.9909L71.2629 42.0891ZM67.5725 42.6C65.4699 42.6 63.6983 42.2453 62.2297 41.5712L61.3953 43.3888C63.18 44.208 65.2484 44.6 67.5725 44.6V42.6ZM62.2354 41.5738C60.8149 40.9109 59.7294 39.9281 58.954 38.6123L57.231 39.6277C58.2156 41.2986 59.6101 42.5558 61.3896 43.3862L62.2354 41.5738ZM58.9645 38.6305C58.2157 37.2967 57.8125 35.5963 57.8125 33.48H55.8125C55.8125 35.8437 56.2626 37.9033 57.2205 39.6095L58.9645 38.6305ZM57.8125 33.48C57.8125 31.251 58.2313 29.5221 58.994 28.2277L57.271 27.2123C56.2737 28.9046 55.8125 31.0156 55.8125 33.48H57.8125ZM58.9913 28.2323C59.8036 26.8705 60.8751 25.875 62.2134 25.2176L61.3316 23.4224C59.6299 24.2584 58.2747 25.5295 57.2737 27.2077L58.9913 28.2323ZM62.2134 25.2176C63.5846 24.544 65.1119 24.2 66.8125 24.2V22.2C64.8331 22.2 63.0004 22.6027 61.3316 23.4224L62.2134 25.2176ZM66.8125 24.2C67.7006 24.2 68.4586 24.2989 69.0978 24.4815L69.6472 22.5585C68.7931 22.3144 67.8444 22.2 66.8125 22.2V24.2ZM69.0978 24.4815C69.788 24.6787 70.311 24.901 70.691 25.1333L71.7339 23.4267C71.154 23.0723 70.4503 22.7879 69.6472 22.5585L69.0978 24.4815ZM70.2125 24.28V29.16H72.2125V24.28H70.2125ZM71.8633 28.4007C71.3926 27.9973 70.8055 27.6561 70.1312 27.3629L69.3338 29.1971C69.8862 29.4373 70.2858 29.6827 70.5617 29.9193L71.8633 28.4007ZM70.1312 27.3629C69.3699 27.0319 68.5233 26.88 67.6125 26.88V28.88C68.3017 28.88 68.8684 28.9947 69.3338 29.1971L70.1312 27.3629ZM67.6125 26.88C66.5322 26.88 65.5343 27.1128 64.6469 27.6058L65.6181 29.3542C66.1707 29.0472 66.8261 28.88 67.6125 28.88V26.88ZM64.6469 27.6058C63.7264 28.1172 63.0313 28.8946 62.5523 29.8844L64.3527 30.7556C64.6737 30.092 65.0986 29.6428 65.6181 29.3542L64.6469 27.6058ZM62.5523 29.8844C62.066 30.8895 61.8525 32.1049 61.8525 33.48H63.8525C63.8525 32.2951 64.039 31.4038 64.3527 30.7556L62.5523 29.8844ZM61.8525 33.48C61.8525 35.4667 62.2886 37.1403 63.3637 38.2847L64.8214 36.9153C64.2431 36.2997 63.8525 35.2266 63.8525 33.48H61.8525ZM63.3746 38.2961C64.4492 39.4043 65.8731 39.92 67.5325 39.92V37.92C66.3119 37.92 65.4425 37.5557 64.8104 36.9039L63.3746 38.2961ZM67.5325 39.92C68.1926 39.92 68.8107 39.8452 69.3747 39.6794L68.8103 37.7606C68.4676 37.8614 68.0457 37.92 67.5325 37.92V39.92ZM69.4253 39.663C69.9117 39.4913 70.3406 39.3053 70.687 39.0975L69.658 37.3825C69.4711 37.4947 69.18 37.6287 68.7597 37.777L69.4253 39.663ZM76.0857 26.36L70.1657 26.4L70.1793 28.4L76.0993 28.36L76.0857 26.36ZM71.1725 27.4V16.96H69.1725V27.4H71.1725ZM70.4887 17.9087C70.6527 17.854 70.9506 17.7841 71.4169 17.7064L71.0881 15.7336C70.5944 15.8159 70.1723 15.906 69.8563 16.0113L70.4887 17.9087ZM71.4169 17.7064C71.8352 17.6367 72.2995 17.6 72.8125 17.6V15.6C72.2055 15.6 71.6298 15.6433 71.0881 15.7336L71.4169 17.7064ZM72.8125 17.6C73.9229 17.6 74.4776 17.7992 74.7129 17.9849L75.9521 16.4151C75.174 15.8008 74.0488 15.6 72.8125 15.6V17.6ZM74.7129 17.9849C74.8585 18.0999 75.0925 18.4425 75.0925 19.4H77.0925C77.0925 18.2241 76.8198 17.1001 75.9521 16.4151L74.7129 17.9849ZM75.0925 19.4V27.36H77.0925V19.4H75.0925ZM93.2584 28.44H94.2584V27.44H93.2584V28.44ZM93.2584 32.76V33.76H94.2584V32.76H93.2584ZM84.3384 32.76H83.3384V33.76H84.3384V32.76ZM84.3384 28.44V27.44H83.3384V28.44H84.3384ZM90.2584 32.76L89.2687 32.6169L89.1035 33.76H90.2584V32.76ZM90.7384 29.44V28.44H89.8726L89.7487 29.2969L90.7384 29.44ZM96.2584 30.24L95.9167 31.1798L95.9167 31.1798L96.2584 30.24ZM99.5384 32.48L98.7384 33.08L98.7437 33.087L98.7491 33.0939L99.5384 32.48ZM97.7784 41.72L98.3251 42.5574L97.7784 41.72ZM87.3784 43.52L87.3119 44.5178L87.3141 44.5179L87.3784 43.52ZM84.8984 43.24L84.7392 44.2273L84.7441 44.228L84.8984 43.24ZM82.6184 42.68L82.2752 43.6193L82.2833 43.6222L82.2913 43.625L82.6184 42.68ZM80.9784 19.68L81.6855 20.3871V20.3871L80.9784 19.68ZM82.1384 19L82.4547 19.9487L82.463 19.9459L82.4713 19.943L82.1384 19ZM85.4184 18.32L85.3169 17.3252L85.3148 17.3254L85.4184 18.32ZM97.0584 19.84L96.5183 20.6816L96.524 20.6852L97.0584 19.84ZM98.6584 28.32L99.4304 28.9557V28.9557L98.6584 28.32ZM95.3784 30.4L95.0622 29.4513L95.0569 29.4531L95.3784 30.4ZM90.2184 31.12L89.2239 31.2239L89.3175 32.12H90.2184V31.12ZM89.9384 28.44V27.44H88.8285L88.9439 28.5439L89.9384 28.44ZM92.6184 23.48L92.0492 24.3022L92.0564 24.3072L92.0637 24.312L92.6184 23.48ZM87.8584 22.84L87.906 23.8389L87.9297 23.8377L87.9533 23.8355L87.8584 22.84ZM86.4584 23L86.2489 22.0222L85.4584 22.1916V23H86.4584ZM86.4584 38.56H85.4584V39.352L86.2294 39.5334L86.4584 38.56ZM88.0984 38.8L88.0154 39.7966L88.0187 39.7968L88.0984 38.8ZM93.1784 38.12L93.7135 38.9648L93.7206 38.9603L93.1784 38.12ZM93.3784 33.48L92.8092 34.3022L93.3784 33.48ZM92.2584 28.44V32.76H94.2584V28.44H92.2584ZM93.2584 31.76H84.3384V33.76H93.2584V31.76ZM85.3384 32.76V28.44H83.3384V32.76H85.3384ZM84.3384 29.44H93.2584V27.44H84.3384V29.44ZM91.2482 32.9031L91.7281 29.5831L89.7487 29.2969L89.2687 32.6169L91.2482 32.9031ZM90.7384 30.44C92.88 30.44 94.595 30.6992 95.9167 31.1798L96.6002 29.3002C94.9886 28.7142 93.0235 28.44 90.7384 28.44V30.44ZM95.9167 31.1798C97.255 31.6664 98.1653 32.3158 98.7384 33.08L100.338 31.88C99.4716 30.7242 98.1953 29.8802 96.6002 29.3002L95.9167 31.1798ZM98.7491 33.0939C99.3431 33.8577 99.6584 34.7946 99.6584 35.96H101.658C101.658 34.4054 101.227 33.0223 100.328 31.8661L98.7491 33.0939ZM99.6584 35.96C99.6584 38.2598 98.8288 39.8401 97.2318 40.8826L98.3251 42.5574C100.568 41.0932 101.658 38.8336 101.658 35.96H99.6584ZM97.2318 40.8826C95.5407 41.9866 93.0292 42.6 89.5784 42.6V44.6C93.2211 44.6 96.1762 43.9601 98.3251 42.5574L97.2318 40.8826ZM89.5784 42.6C88.9651 42.6 88.2539 42.5744 87.4428 42.5221L87.3141 44.5179C88.1563 44.5723 88.9118 44.6 89.5784 44.6V42.6ZM87.445 42.5222C86.6765 42.471 85.8792 42.3811 85.0528 42.252L84.7441 44.228C85.6243 44.3656 86.4804 44.4623 87.3119 44.5178L87.445 42.5222ZM85.0577 42.2528C84.2803 42.1274 83.5772 41.9537 82.9455 41.735L82.2913 43.625C83.0463 43.8863 83.8633 44.086 84.7392 44.2272L85.0577 42.2528ZM82.9616 41.7407C82.392 41.5326 82.0495 41.276 81.8484 41.0169C81.6556 40.7685 81.5384 40.4488 81.5384 40H79.5384C79.5384 40.8312 79.7679 41.5982 80.2685 42.2431C80.7607 42.8774 81.4582 43.3207 82.2752 43.6193L82.9616 41.7407ZM81.5384 40V20.88H79.5384V40H81.5384ZM81.5384 20.88C81.5384 20.5761 81.6197 20.4529 81.6855 20.3871L80.2713 18.9729C79.7505 19.4938 79.5384 20.1706 79.5384 20.88H81.5384ZM81.6855 20.3871C81.8476 20.2251 82.0901 20.0702 82.4547 19.9487L81.8222 18.0513C81.2268 18.2498 80.6959 18.5483 80.2713 18.9729L81.6855 20.3871ZM82.4713 19.943C83.2837 19.6562 84.2957 19.4424 85.522 19.3146L85.3148 17.3254C83.9812 17.4643 82.8065 17.7038 81.8056 18.057L82.4713 19.943ZM85.52 19.3148C86.7917 19.1851 88.0911 19.12 89.4184 19.12V17.12C88.0257 17.12 86.6585 17.1883 85.3169 17.3252L85.52 19.3148ZM89.4184 19.12C92.6319 19.12 94.9593 19.681 96.5183 20.6816L97.5986 18.9984C95.5842 17.7056 92.8183 17.12 89.4184 17.12V19.12ZM96.524 20.6852C98.0203 21.6314 98.7784 23.0295 98.7784 25.04H100.778C100.778 22.4105 99.7232 20.3419 97.5929 18.9948L96.524 20.6852ZM98.7784 25.04C98.7784 26.1104 98.4722 26.9732 97.8865 27.6843L99.4304 28.9557C100.338 27.8535 100.778 26.5296 100.778 25.04H98.7784ZM97.8865 27.6843C97.2896 28.4091 96.3752 29.0136 95.0622 29.4513L95.6947 31.3487C97.2616 30.8264 98.534 30.0442 99.4304 28.9557L97.8865 27.6843ZM95.0569 29.4531C93.7767 29.8879 92.1722 30.12 90.2184 30.12V32.12C92.3181 32.12 94.1535 31.8721 95.7 31.3469L95.0569 29.4531ZM91.213 31.0161L90.933 28.3361L88.9439 28.5439L89.2239 31.2239L91.213 31.0161ZM89.9384 29.44C91.3186 29.44 92.542 29.1724 93.4153 28.451L92.1416 26.909C91.7882 27.201 91.1183 27.44 89.9384 27.44V29.44ZM93.4153 28.451C94.2995 27.7205 94.6984 26.6941 94.6984 25.52H92.6984C92.6984 26.2125 92.484 26.6261 92.1416 26.909L93.4153 28.451ZM94.6984 25.52C94.6984 24.3125 94.177 23.3172 93.1731 22.6479L92.0637 24.312C92.4999 24.6028 92.6984 24.9675 92.6984 25.52H94.6984ZM93.1877 22.6578C92.2481 22.0074 90.9514 21.76 89.4584 21.76V23.76C90.7921 23.76 91.6021 23.9926 92.0492 24.3022L93.1877 22.6578ZM89.4584 21.76C88.9169 21.76 88.3518 21.7885 87.7636 21.8445L87.9533 23.8355C88.4851 23.7848 88.9867 23.76 89.4584 23.76V21.76ZM87.8109 21.8411C87.2191 21.8693 86.694 21.9268 86.2489 22.0222L86.668 23.9778C86.9696 23.9132 87.3777 23.864 87.906 23.8389L87.8109 21.8411ZM85.4584 23V38.56H87.4584V23H85.4584ZM86.2294 39.5334C86.7449 39.6547 87.3432 39.7405 88.0154 39.7965L88.1815 37.8035C87.5737 37.7528 87.0786 37.6786 86.6875 37.5866L86.2294 39.5334ZM88.0187 39.7968C88.7083 39.852 89.3618 39.88 89.9784 39.88V37.88C89.4218 37.88 88.8219 37.8547 88.1782 37.8032L88.0187 39.7968ZM89.9784 39.88C91.4273 39.88 92.7007 39.6062 93.7135 38.9648L92.6434 37.2752C92.0561 37.6471 91.1962 37.88 89.9784 37.88V39.88ZM93.7206 38.9603C94.8602 38.225 95.4184 37.0922 95.4184 35.72H93.4184C93.4184 36.4811 93.15 36.9483 92.6363 37.2797L93.7206 38.9603ZM95.4184 35.72C95.4184 34.454 94.9674 33.3638 93.9477 32.6578L92.8092 34.3022C93.1762 34.5562 93.4184 34.9594 93.4184 35.72H95.4184ZM93.9477 32.6578C93.0105 32.009 91.7296 31.76 90.2584 31.76V33.76C91.5606 33.76 92.3597 33.991 92.8092 34.3022L93.9477 32.6578ZM104.509 16L103.817 15.278L103.809 15.2854L103.802 15.2929L104.509 16ZM109.309 20.56L108.587 19.8681V19.8681L109.309 20.56ZM104.509 20.56L103.787 21.2519L103.794 21.2596L103.802 21.2671L104.509 20.56ZM103.949 32.44V31.44H102.949V32.44H103.949ZM109.869 32.44H110.869V31.44H109.869V32.44ZM109.869 42.96L110.185 43.9087L110.869 43.6808V42.96H109.869ZM108.789 43.16L108.678 42.1661L108.651 42.1691L108.624 42.1736L108.789 43.16ZM104.709 42.68L104.089 43.4649L104.099 43.4726L104.109 43.48L104.709 42.68ZM109.869 35.52V36.52H110.869V35.52H109.869ZM103.949 35.52H102.949V36.52H103.949V35.52ZM103.949 24.04L103.633 23.0913L102.949 23.3192V24.04H103.949ZM105.029 23.8L104.873 22.8122L104.864 22.8136L105.029 23.8ZM109.109 24.28L108.489 25.0649L108.502 25.0752L108.516 25.0851L109.109 24.28ZM104.589 18.28C104.589 17.6252 104.799 17.1236 105.216 16.7071L103.802 15.2929C102.992 16.103 102.589 17.1215 102.589 18.28H104.589ZM105.201 16.722C105.638 16.3027 106.183 16.08 106.909 16.08V14.08C105.714 14.08 104.659 14.4707 103.817 15.278L105.201 16.722ZM106.909 16.08C107.67 16.08 108.202 16.3076 108.602 16.7071L110.016 15.2929C109.189 14.4657 108.121 14.08 106.909 14.08V16.08ZM108.602 16.7071C109.018 17.1236 109.229 17.6252 109.229 18.28H111.229C111.229 17.1215 110.826 16.103 110.016 15.2929L108.602 16.7071ZM109.229 18.28C109.229 18.9 109.023 19.4127 108.587 19.8681L110.031 21.2519C110.821 20.4273 111.229 19.42 111.229 18.28H109.229ZM108.587 19.8681C108.184 20.288 107.657 20.52 106.909 20.52V22.52C108.134 22.52 109.207 22.112 110.031 21.2519L108.587 19.8681ZM106.909 20.52C106.196 20.52 105.656 20.2931 105.216 19.8529L103.802 21.2671C104.641 22.1069 105.701 22.52 106.909 22.52V20.52ZM105.231 19.8681C104.794 19.4127 104.589 18.9 104.589 18.28H102.589C102.589 19.42 102.996 20.4273 103.787 21.2519L105.231 19.8681ZM103.949 33.44H109.869V31.44H103.949V33.44ZM108.869 32.44V42.96H110.869V32.44H108.869ZM109.553 42.0113C109.415 42.0572 109.139 42.1149 108.678 42.1661L108.899 44.1539C109.398 44.0984 109.843 44.0228 110.185 43.9087L109.553 42.0113ZM108.624 42.1736C108.206 42.2433 107.742 42.28 107.229 42.28V44.28C107.836 44.28 108.411 44.2367 108.953 44.1464L108.624 42.1736ZM107.229 42.28C106.159 42.28 105.583 42.0858 105.309 41.88L104.109 43.48C104.901 44.0742 106.006 44.28 107.229 44.28V42.28ZM105.328 41.8951C105.178 41.7761 104.949 41.4404 104.949 40.52H102.949C102.949 41.6796 103.226 42.7839 104.089 43.4649L105.328 41.8951ZM104.949 40.52V32.44H102.949V40.52H104.949ZM109.869 34.52H103.949V36.52H109.869V34.52ZM104.949 35.52V24.04H102.949V35.52H104.949ZM104.265 24.9887C104.429 24.934 104.727 24.8641 105.193 24.7864L104.864 22.8136C104.371 22.8959 103.949 22.986 103.633 23.0913L104.265 24.9887ZM105.185 24.7878C105.635 24.7166 106.116 24.68 106.629 24.68V22.68C106.021 22.68 105.435 22.7234 104.873 22.8122L105.185 24.7878ZM106.629 24.68C107.706 24.68 108.251 24.8769 108.489 25.0649L109.728 23.4951C108.953 22.8831 107.845 22.68 106.629 22.68V24.68ZM108.516 25.0851C108.626 25.1664 108.869 25.4759 108.869 26.48H110.869C110.869 25.2974 110.605 24.1402 109.702 23.4749L108.516 25.0851ZM108.869 26.48V35.52H110.869V26.48H108.869ZM113.927 32.44V31.44H112.927V32.44H113.927ZM119.807 32.44H120.807V31.44H119.807V32.44ZM120.527 38.36L119.942 39.1707V39.1707L120.527 38.36ZM123.847 38.76L124.021 39.7448L124.043 39.741L124.064 39.7362L123.847 38.76ZM125.047 38.4L125.795 37.7356L125.321 37.2026L124.663 37.4769L125.047 38.4ZM125.607 39.28L124.699 39.6991L124.712 39.727L124.727 39.7541L125.607 39.28ZM115.767 42.08L115.13 42.851L115.138 42.8576L115.767 42.08ZM117.687 28.8H116.687V29.8H117.687V28.8ZM117.687 24.24V23.24H116.687V24.24H117.687ZM125.367 24.24L126.215 23.71L125.921 23.24H125.367V24.24ZM125.767 25.16L124.819 25.4762L125.767 25.16ZM125.407 28.24L124.7 27.5329L124.687 27.546L124.674 27.5595L125.407 28.24ZM119.807 33.44V34.44H120.807V33.44H119.807ZM113.927 33.44H112.927V34.44H113.927V33.44ZM113.927 19.08L113.64 18.1222L112.927 18.336V19.08H113.927ZM115.047 18.84L115.212 19.8264L115.238 19.822L115.264 19.8162L115.047 18.84ZM119.047 19.28L119.667 18.4951L119.047 19.28ZM113.927 33.44H119.807V31.44H113.927V33.44ZM118.807 32.44V36.72H120.807V32.44H118.807ZM118.807 36.72C118.807 37.6944 119.134 38.5873 119.942 39.1707L121.113 37.5493C120.96 37.4393 120.807 37.2389 120.807 36.72H118.807ZM119.942 39.1707C120.657 39.6871 121.574 39.88 122.567 39.88V37.88C121.8 37.88 121.358 37.7262 121.113 37.5493L119.942 39.1707ZM122.567 39.88C123.033 39.88 123.519 39.8334 124.021 39.7448L123.673 37.7752C123.269 37.8466 122.901 37.88 122.567 37.88V39.88ZM124.064 39.7362C124.58 39.6216 125.04 39.4862 125.432 39.3231L124.663 37.4769C124.414 37.5805 124.075 37.6851 123.63 37.7838L124.064 39.7362ZM124.3 39.0644C124.437 39.2186 124.573 39.4253 124.699 39.6991L126.515 38.8609C126.322 38.4414 126.084 38.0614 125.795 37.7356L124.3 39.0644ZM124.727 39.7541C124.824 39.9343 124.887 40.1669 124.887 40.48H126.887C126.887 39.8864 126.764 39.319 126.488 38.8059L124.727 39.7541ZM124.887 40.48C124.887 41.0633 124.668 41.5262 124.149 41.9337L125.385 43.5063C126.36 42.7405 126.887 41.71 126.887 40.48H124.887ZM124.149 41.9337C123.676 42.3056 122.71 42.6 121.007 42.6V44.6C122.824 44.6 124.365 44.3077 125.385 43.5063L124.149 41.9337ZM121.007 42.6C118.908 42.6 117.413 42.1248 116.396 41.3024L115.138 42.8576C116.628 44.0619 118.626 44.6 121.007 44.6V42.6ZM116.404 41.309C115.495 40.5581 114.927 39.2514 114.927 37.12H112.927C112.927 39.5753 113.586 41.5752 115.13 42.851L116.404 41.309ZM114.927 37.12V32.44H112.927V37.12H114.927ZM118.687 28.8V24.24H116.687V28.8H118.687ZM117.687 25.24H125.367V23.24H117.687V25.24ZM124.519 24.77C124.592 24.8864 124.696 25.1081 124.819 25.4762L126.716 24.8438C126.572 24.4119 126.409 24.0203 126.215 23.71L124.519 24.77ZM124.819 25.4762C124.914 25.7612 124.967 26.0928 124.967 26.48H126.967C126.967 25.9072 126.888 25.3588 126.716 24.8438L124.819 25.4762ZM124.967 26.48C124.967 27.1493 124.808 27.4246 124.7 27.5329L126.114 28.9471C126.753 28.3088 126.967 27.4107 126.967 26.48H124.967ZM124.674 27.5595C124.555 27.6881 124.364 27.8 123.967 27.8V29.8C124.797 29.8 125.566 29.5385 126.14 28.9205L124.674 27.5595ZM123.967 27.8H117.687V29.8H123.967V27.8ZM119.807 32.44H113.927V34.44H119.807V32.44ZM114.927 33.44V19.08H112.927V33.44H114.927ZM114.215 20.0378C114.422 19.9756 114.747 19.9038 115.212 19.8264L114.883 17.8536C114.387 17.9362 113.966 18.0244 113.64 18.1222L114.215 20.0378ZM115.264 19.8162C115.667 19.7266 116.101 19.68 116.567 19.68V17.68C115.967 17.68 115.387 17.74 114.83 17.8638L115.264 19.8162ZM116.567 19.68C117.644 19.68 118.189 19.8769 118.428 20.0649L119.667 18.4951C118.892 17.8831 117.783 17.68 116.567 17.68V19.68ZM118.428 20.0649C118.573 20.1799 118.807 20.5225 118.807 21.48H120.807C120.807 20.3041 120.534 19.1801 119.667 18.4951L118.428 20.0649ZM118.807 21.48V33.44H120.807V21.48H118.807ZM131.238 36.2L130.24 36.2599L130.305 37.3487L131.384 37.1893L131.238 36.2ZM130.998 32.2L130.842 31.2121L129.945 31.3532L130 32.2599L130.998 32.2ZM140.918 30.64L141.073 31.6279L141.981 31.4851L141.915 30.5688L140.918 30.64ZM139.958 28.56L140.695 27.8843L140.695 27.8843L139.958 28.56ZM134.358 28.84L135.065 29.5471L135.071 29.5413L135.076 29.5354L134.358 28.84ZM133.078 32.28L132.078 32.2443L132.077 32.2983L132.08 32.3523L133.078 32.28ZM133.278 35.04L132.28 35.1123L132.284 35.1571L132.291 35.2015L133.278 35.04ZM135.158 38.2L134.624 39.0455L134.632 39.0506L134.64 39.0555L135.158 38.2ZM144.318 37.64L144.832 36.7825L144.333 36.4828L143.826 36.7694L144.318 37.64ZM145.278 38.64L144.406 39.1303L144.418 39.1504L144.43 39.17L145.278 38.64ZM144.718 42L144.078 41.2318L144.07 41.2385L144.062 41.2454L144.718 42ZM142.118 43.2L141.886 42.2272L141.881 42.2285L142.118 43.2ZM132.798 42.44L132.368 43.3432L132.374 43.3458L132.798 42.44ZM128.958 38.96L128.102 39.4767L128.958 38.96ZM128.358 28.72L127.445 28.3121L127.441 28.3202L127.438 28.3284L128.358 28.72ZM130.558 25.64L131.219 26.3898L131.221 26.3886L130.558 25.64ZM133.678 23.8L133.355 22.8535L133.348 22.8558L133.678 23.8ZM142.118 24.32L141.637 25.1966L141.647 25.2022L141.657 25.2075L142.118 24.32ZM145.358 27.28L144.507 27.8051L145.358 27.28ZM145.838 33.52L146.523 34.2482L145.838 33.52ZM143.958 34.32L143.826 33.3288L143.819 33.3297L143.812 33.3307L143.958 34.32ZM132.236 36.1401L131.996 32.1401L130 32.2599L130.24 36.2599L132.236 36.1401ZM131.153 33.1879L141.073 31.6279L140.762 29.6521L130.842 31.2121L131.153 33.1879ZM141.915 30.5688C141.843 29.562 141.409 28.6628 140.695 27.8843L139.221 29.2357C139.68 29.7372 139.886 30.2246 139.92 30.7112L141.915 30.5688ZM140.695 27.8843C139.863 26.977 138.69 26.6 137.358 26.6V28.6C138.319 28.6 138.879 28.863 139.221 29.2357L140.695 27.8843ZM137.358 26.6C135.9 26.6 134.637 27.114 133.639 28.1446L135.076 29.5354C135.679 28.9126 136.416 28.6 137.358 28.6V26.6ZM133.651 28.1329C132.621 29.1629 132.138 30.5814 132.078 32.2443L134.077 32.3157C134.124 30.9919 134.495 30.1171 135.065 29.5471L133.651 28.1329ZM132.08 32.3523L132.28 35.1123L134.275 34.9677L134.075 32.2077L132.08 32.3523ZM132.291 35.2015C132.565 36.8773 133.312 38.2172 134.624 39.0455L135.692 37.3545C134.977 36.9028 134.47 36.1361 134.265 34.8785L132.291 35.2015ZM134.64 39.0555C135.834 39.7785 137.22 40.12 138.758 40.12V38.12C137.522 38.12 136.508 37.8482 135.676 37.3445L134.64 39.0555ZM138.758 40.12C139.974 40.12 141.132 39.946 142.226 39.5912L141.609 37.6888C140.73 37.974 139.781 38.12 138.758 38.12V40.12ZM142.226 39.5912C143.25 39.2593 144.118 38.9017 144.81 38.5106L143.826 36.7694C143.291 37.0717 142.559 37.3807 141.609 37.6888L142.226 39.5912ZM143.803 38.4975C144.047 38.6437 144.247 38.8472 144.406 39.1303L146.149 38.1497C145.829 37.5795 145.389 37.1163 144.832 36.7825L143.803 38.4975ZM144.43 39.17C144.602 39.4458 144.678 39.7167 144.678 40H146.678C146.678 39.3233 146.487 38.6876 146.126 38.11L144.43 39.17ZM144.678 40C144.678 40.4894 144.5 40.8794 144.078 41.2318L145.358 42.7682C146.215 42.0539 146.678 41.1106 146.678 40H144.678ZM144.062 41.2454C143.61 41.6379 142.911 41.9833 141.886 42.2272L142.349 44.1728C143.565 43.8834 144.599 43.4287 145.374 42.7546L144.062 41.2454ZM141.881 42.2285C140.882 42.4721 139.711 42.6 138.358 42.6V44.6C139.832 44.6 141.167 44.4612 142.355 44.1715L141.881 42.2285ZM138.358 42.6C136.433 42.6 134.727 42.2381 133.221 41.5342L132.374 43.3458C134.176 44.1885 136.176 44.6 138.358 44.6V42.6ZM133.227 41.5369C131.778 40.848 130.646 39.8226 129.814 38.4433L128.102 39.4767C129.136 41.1907 130.564 42.4853 132.368 43.3431L133.227 41.5369ZM129.814 38.4433C128.998 37.0911 128.558 35.3488 128.558 33.16H126.558C126.558 35.6112 127.051 37.7356 128.102 39.4767L129.814 38.4433ZM128.558 33.16C128.558 31.555 128.809 30.214 129.278 29.1116L127.438 28.3284C126.84 29.7326 126.558 31.3517 126.558 33.16H128.558ZM129.271 29.1279C129.78 27.9876 130.434 27.0831 131.219 26.3898L129.896 24.8902C128.869 25.7969 128.055 26.9458 127.445 28.3121L129.271 29.1279ZM131.221 26.3886C132.059 25.6459 132.987 25.1002 134.007 24.7442L133.348 22.8558C132.076 23.2998 130.923 23.9808 129.895 24.8914L131.221 26.3886ZM134 24.7465C135.069 24.3823 136.173 24.2 137.318 24.2V22.2C135.956 22.2 134.634 22.4177 133.355 22.8535L134 24.7465ZM137.318 24.2C139.021 24.2 140.449 24.5447 141.637 25.1966L142.599 23.4434C141.066 22.6019 139.295 22.2 137.318 22.2V24.2ZM141.657 25.2075C142.893 25.8495 143.834 26.7151 144.507 27.8051L146.209 26.7549C145.335 25.3382 144.116 24.2305 142.579 23.4325L141.657 25.2075ZM144.507 27.8051C145.171 28.8818 145.518 30.1488 145.518 31.64H147.518C147.518 29.8246 147.091 28.1848 146.209 26.7549L144.507 27.8051ZM145.518 31.64C145.518 32.2854 145.345 32.6103 145.152 32.7918L146.523 34.2482C147.237 33.5763 147.518 32.648 147.518 31.64H145.518ZM145.152 32.7918C144.891 33.0378 144.48 33.2416 143.826 33.3288L144.09 35.3112C145.036 35.1851 145.878 34.8555 146.523 34.2482L145.152 32.7918ZM143.812 33.3307L131.092 35.2107L131.384 37.1893L144.104 35.3093L143.812 33.3307ZM162.757 42L163.354 42.8018L163.363 42.7948L162.757 42ZM150.957 42.68L150.544 43.591L150.957 42.68ZM149.197 38.4L150.054 38.9145L150.061 38.9025L150.068 38.8903L149.197 38.4ZM150.117 37.4L150.613 36.5318L150.086 36.2308L149.576 36.5588L150.117 37.4ZM152.717 38.6L152.363 39.5353L152.378 39.541L152.393 39.5462L152.717 38.6ZM158.557 36.32L157.911 37.0834L157.928 37.0984L157.947 37.1126L158.557 36.32ZM156.837 35.68L156.605 36.6528L156.638 36.6608L156.672 36.6664L156.837 35.68ZM155.157 35.28L155.388 34.3072L155.376 34.3044L155.364 34.3018L155.157 35.28ZM150.357 33.2L149.678 33.9348L149.688 33.9438L149.698 33.9526L150.357 33.2ZM151.037 24.84L151.627 25.6469L151.63 25.6451L151.037 24.84ZM160.637 23.56L160.388 24.5287L160.403 24.5324L160.417 24.5356L160.637 23.56ZM163.157 24.72L162.5 25.4746L162.51 25.4829L162.52 25.491L163.157 24.72ZM163.757 28.04L164.639 28.5106V28.5106L163.757 28.04ZM162.917 29.04L162.38 29.8837L162.971 30.2599L163.526 29.8326L162.917 29.04ZM161.557 28.44L161.215 29.3799L161.228 29.3845L161.557 28.44ZM159.597 27.92L159.408 28.902L159.414 28.9033L159.597 27.92ZM155.397 28.12L155.807 29.0319L155.826 29.0236L155.844 29.0144L155.397 28.12ZM155.037 30.2L154.364 30.9399L154.399 30.9717L154.437 31L155.037 30.2ZM156.677 30.8L156.919 29.8299L156.899 29.8249L156.879 29.8207L156.677 30.8ZM158.277 31.2L158.034 32.1701L158.046 32.173L158.057 32.1757L158.277 31.2ZM163.397 33.52L162.699 34.2363L162.708 34.2455L163.397 33.52ZM163.957 37.4C163.957 39.0549 163.353 40.2862 162.15 41.2052L163.363 42.7948C165.093 41.4738 165.957 39.6385 165.957 37.4H163.957ZM162.159 41.1983C160.935 42.1107 159.049 42.64 156.357 42.64V44.64C159.264 44.64 161.645 44.076 163.354 42.8017L162.159 41.1983ZM156.357 42.64C154.258 42.64 152.611 42.3315 151.369 41.769L150.544 43.591C152.129 44.3085 154.082 44.64 156.357 44.64V42.64ZM151.369 41.769C150.77 41.4976 150.393 41.1938 150.168 40.8918C149.952 40.6021 149.837 40.2651 149.837 39.84H147.837C147.837 40.6683 148.075 41.4312 148.565 42.0882C149.046 42.7328 149.73 43.2224 150.544 43.591L151.369 41.769ZM149.837 39.84C149.837 39.4248 149.924 39.1305 150.054 38.9145L148.339 37.8855C147.989 38.4695 147.837 39.1353 147.837 39.84H149.837ZM150.068 38.8903C150.237 38.5909 150.435 38.3841 150.657 38.2412L149.576 36.5588C149.052 36.8959 148.637 37.3558 148.325 37.9097L150.068 38.8903ZM149.62 38.2682C150.422 38.726 151.337 39.1474 152.363 39.5353L153.07 37.6647C152.122 37.306 151.305 36.9273 150.613 36.5318L149.62 38.2682ZM152.393 39.5462C153.528 39.9347 154.787 40.12 156.157 40.12V38.12C154.966 38.12 153.931 37.9587 153.04 37.6538L152.393 39.5462ZM156.157 40.12C157.193 40.12 158.133 39.9767 158.845 39.5668C159.641 39.1089 160.077 38.359 160.077 37.44H158.077C158.077 37.641 158.025 37.7311 157.848 37.8332C157.587 37.9833 157.067 38.12 156.157 38.12V40.12ZM160.077 37.44C160.077 36.6843 159.785 36.0036 159.166 35.5274L157.947 37.1126C158.021 37.1697 158.077 37.2357 158.077 37.44H160.077ZM159.203 35.5566C158.648 35.0875 157.858 34.8365 157.001 34.6936L156.672 36.6664C157.415 36.7902 157.772 36.9658 157.911 37.0834L159.203 35.5566ZM157.068 34.7072L155.388 34.3072L154.925 36.2528L156.605 36.6528L157.068 34.7072ZM155.364 34.3018C153.316 33.8665 151.902 33.2236 151.015 32.4474L149.698 33.9526C150.944 35.0431 152.731 35.7868 154.949 36.2582L155.364 34.3018ZM151.035 32.4652C150.235 31.7267 149.797 30.7055 149.797 29.28H147.797C147.797 31.1611 148.398 32.7533 149.678 33.9348L151.035 32.4652ZM149.797 29.28C149.797 27.7289 150.394 26.5499 151.627 25.6469L150.446 24.0331C148.693 25.3167 147.797 27.0978 147.797 29.28H149.797ZM151.63 25.6451C152.926 24.6898 154.735 24.16 157.157 24.16V22.16C154.458 22.16 152.187 22.7501 150.443 24.0349L151.63 25.6451ZM157.157 24.16C158.368 24.16 159.443 24.2863 160.388 24.5287L160.885 22.5913C159.75 22.3003 158.505 22.16 157.157 22.16V24.16ZM160.417 24.5356C161.376 24.7513 162.048 25.081 162.5 25.4746L163.813 23.9654C163.039 23.2923 162.031 22.8487 160.856 22.5844L160.417 24.5356ZM162.52 25.491C162.911 25.814 163.077 26.1747 163.077 26.64H165.077C165.077 25.5586 164.629 24.6394 163.793 23.949L162.52 25.491ZM163.077 26.64C163.077 27.0382 162.998 27.3378 162.874 27.5694L164.639 28.5106C164.942 27.9422 165.077 27.3085 165.077 26.64H163.077ZM162.874 27.5694C162.725 27.8486 162.537 28.0706 162.307 28.2474L163.526 29.8326C163.99 29.476 164.361 29.0314 164.639 28.5106L162.874 27.5694ZM163.453 28.1963C163.061 27.9466 162.52 27.7164 161.885 27.4955L161.228 29.3845C161.82 29.5903 162.186 29.7601 162.38 29.8837L163.453 28.1963ZM161.898 27.5002C161.252 27.2651 160.544 27.0784 159.779 26.9367L159.414 28.9033C160.089 29.0282 160.688 29.1882 161.215 29.3798L161.898 27.5002ZM159.785 26.938C159.039 26.7944 158.322 26.72 157.637 26.72V28.72C158.178 28.72 158.768 28.7789 159.408 28.902L159.785 26.938ZM157.637 26.72C156.606 26.72 155.681 26.8597 154.949 27.2256L155.844 29.0144C156.179 28.847 156.748 28.72 157.637 28.72V26.72ZM154.986 27.2081C154.594 27.3847 154.233 27.6459 153.973 28.0223C153.71 28.4045 153.597 28.839 153.597 29.28H155.597C155.597 29.1877 155.617 29.1621 155.62 29.1577C155.627 29.1475 155.666 29.0953 155.807 29.0319L154.986 27.2081ZM153.597 29.28C153.597 29.9501 153.895 30.5138 154.364 30.9399L155.709 29.4601C155.591 29.3529 155.597 29.3032 155.597 29.28H153.597ZM154.437 31C154.941 31.3783 155.67 31.613 156.474 31.7793L156.879 29.8207C156.136 29.667 155.772 29.5017 155.637 29.4L154.437 31ZM156.434 31.7701L158.034 32.1701L158.519 30.2299L156.919 29.8299L156.434 31.7701ZM158.057 32.1757C160.359 32.6928 161.853 33.4122 162.699 34.2362L164.094 32.8038C162.86 31.6012 160.941 30.7739 158.496 30.2243L158.057 32.1757ZM162.708 34.2455C163.525 35.0204 163.957 36.0392 163.957 37.4H165.957C165.957 35.5608 165.348 33.9929 164.085 32.7945L162.708 34.2455Z" fill="#F1F1F1" mask="url(#path-1-outside-1_660_6)"/>
</svg>
